<?xml version="1.0" encoding="UTF-8" standalone="no" ?><!DOCTYPE svg PUBLIC "-//W3C//DTD SVG 1.1//EN" "http://www.w3.org/Graphics/SVG/1.1/DTD/svg11.dtd"><svg xmlns="http://www.w3.org/2000/svg" xmlns:xlink="http://www.w3.org/1999/xlink" version="1.1" width="64" height="64" viewBox="0 0 64 64" xml:space="preserve"><g transform="matrix(1 0 0 1 32 32)" id="db29805b-c53f-4a00-9e96-62677ea4905f"/><g transform="matrix(Infinity NaN NaN Infinity 0 0)" id="f4638cb6-68b2-44fa-89b7-f041c706bc09"/><g transform="matrix(0.06 0 0 0.06 32 32)"><g style="" ><g transform="matrix(1 0 0 1 -116.2 -2.03)"><path style="stroke: none; stroke-width: 1; stroke-dasharray: none; stroke-linecap: butt; stroke-dashoffset: 0; stroke-linejoin: miter; stroke-miterlimit: 4; fill: rgb(116,195,112); fill-rule: nonzero; opacity: 1;"  transform=" translate(-760.82, -618.18)" d="M 768.9 725.4 C 740.3 720.3 714.8 704.4 698.5 681.5 C 671.7 643.9 670.5 599.7 695.4 561.5 C 710.6999999999999 538 736.1999999999999 519.4 762.5 512.3 C 775.6 508.9 796.9 508.4 809.5 511.4 C 817.3 513.1999999999999 834.6 519.5 835.4 520.9 C 835.8 521.4 819.8 551.3 818.4 552.9 C 818.1999999999999 553.1 815.4 552.1 812.3 550.6999999999999 C 799.5 545.0999999999999 781.0999999999999 544.4999999999999 767.1999999999999 549.3 C 742.9 557.6999999999999 722.8 579.3 716.4 604 C 713.6999999999999 614.1 714.1 628.5 717.4 638.5 C 725.5 663.7 746.8 683.2 772 688.5 C 794 693.1 820.1 686.1 836.1 671.2 L 842 665.8000000000001 L 842 686.8000000000001 C 842 702.1 842.3 707.9000000000001 843.2 708.2 C 845.8000000000001 709.1 842.8000000000001 711.7 834.9000000000001 715.6 C 814.5000000000001 725.7 790.2 729.3000000000001 768.9000000000001 725.4 z" stroke-linecap="round"/></g><g transform="matrix(1 0 0 1 35.08 89.29)"><path style="stroke: none; stroke-width: 1; stroke-dasharray: none; stroke-linecap: butt; stroke-dashoffset: 0; stroke-linejoin: miter; stroke-miterlimit: 4; fill: rgb(107,194,140); fill-rule: nonzero; opacity: 1;"  transform=" translate(-912.1, -709.5)" d="M 911.4 715.3 L 907.1999999999999 712.5999999999999 L 911.3 706.8 C 913.5999999999999 703.5999999999999 915.8 701 916.1999999999999 701 C 916.5999999999999 701 916.9999999999999 704.8 916.9999999999999 709.5 C 916.9999999999999 714.2 916.6999999999999 718 916.2999999999998 718 C 915.7999999999998 718 913.5999999999998 716.8 911.3999999999999 715.3 z" stroke-linecap="round"/></g><g transform="matrix(1 0 0 1 1.72 -1.43)"><path style="stroke: none; stroke-width: 1; stroke-dasharray: none; stroke-linecap: butt; stroke-dashoffset: 0; stroke-linejoin: miter; stroke-miterlimit: 4; fill: rgb(107,194,140); fill-rule: nonzero; opacity: 1;"  transform=" translate(-878.74, -618.78)" d="M 840.3 711.3 C 839.3 711 839 705.6999999999999 839 689.8 L 839 668.8 L 841.6 665.6999999999999 C 845.1 661.5999999999999 850.4 650.8 852.8000000000001 642.9 C 853.9000000000001 639.1999999999999 856.7 627.1 859.0000000000001 615.9 C 861.3000000000001 604.6999999999999 864.5000000000001 591.1999999999999 866.2000000000002 586 C 873.7000000000002 562.5 886.0000000000001 545.1 903.5000000000001 533.3 C 909.3000000000001 529.4 915.3000000000001 526 916.5000000000001 526 C 916.8000000000001 526 917.0000000000001 535 917.0000000000001 545.9 C 917.0000000000001 561 917.3000000000001 565.9 918.3000000000001 566.3 C 919.0000000000001 566.5 917.7 568.5999999999999 914.8000000000001 571.6999999999999 C 909.5000000000001 577.4 904.2 587.3 901.2 597.0999999999999 C 900.1 600.6999999999999 897.1 613.4999999999999 894.6 625.5999999999999 C 888.1 656.8999999999999 882.9 670.9999999999999 872.5 685.4999999999999 C 867.3 692.7999999999998 856.7 702.8999999999999 849.3 707.5999999999999 C 843.3 711.4999999999999 842 711.9999999999999 840.3 711.3 z" stroke-linecap="round"/></g><g transform="matrix(1 0 0 1 62.48 86.88)"><path style="stroke: none; stroke-width: 1; stroke-dasharray: none; stroke-linecap: butt; stroke-dashoffset: 0; stroke-linejoin: miter; stroke-miterlimit: 4; fill: rgb(97,195,164); fill-rule: nonzero; opacity: 1;"  transform=" translate(-939.5, -707.09)" d="M 951.5 730.3 C 943.7 729.1999999999999 931.6 725.5 923.3 721.5 L 914 717.1 L 914 710 L 914 702.9 L 920.7 693.1999999999999 C 924.4000000000001 687.9 927.5 683.3 927.6 683.1999999999999 C 927.7 682.9999999999999 931.6 684.6999999999999 936.2 686.9 C 945.5 691.5 954.3000000000001 694 960.7 694 L 965 694 L 965 712.5 L 965 731 L 959.8 730.9 C 956.9 730.8 953.1999999999999 730.5 951.5 730.3 z" stroke-linecap="round"/></g><g transform="matrix(1 0 0 1 62.48 -79.05)"><path style="stroke: none; stroke-width: 1; stroke-dasharray: none; stroke-linecap: butt; stroke-dashoffset: 0; stroke-linejoin: miter; stroke-miterlimit: 4; fill: rgb(97,195,164); fill-rule: nonzero; opacity: 1;"  transform=" translate(-939.5, -541.17)" d="M 915.3 569.3 C 914.3 568.9 914 563.6999999999999 914 547.9 L 914 527 L 919.8 524.1 C 931 518.5 951.9 513 962.3 513 L 965 513 L 965 531.4 L 965 549.6999999999999 L 958.8 550.4 C 946.4 551.8 926.8 560.1999999999999 919 567.4 C 917.6 568.6999999999999 915.9 569.5 915.3 569.3 z" stroke-linecap="round"/></g><g transform="matrix(1 0 0 1 106.39 87.29)"><path style="stroke: none; stroke-width: 1; stroke-dasharray: none; stroke-linecap: butt; stroke-dashoffset: 0; stroke-linejoin: miter; stroke-miterlimit: 4; fill: rgb(88,195,183); fill-rule: nonzero; opacity: 1;"  transform=" translate(-983.42, -707.5)" d="M 962 712.5 L 962 694 L 968.3 694 C 976.5 694 985.5 691.8 994.6999999999999 687.5 C 998.9 685.6 1002.4 684 1002.5999999999999 684 C 1002.8 684 1002.9999999999999 691.8 1002.9999999999999 701.3 C 1002.9999999999999 712.9 1003.3999999999999 719 1004.0999999999999 719.6999999999999 C 1004.8 720.4 1004.9999999999999 721.4999999999999 1004.6999999999999 722.4 C 1003.4999999999999 725.4 979.8 731 967.9 731 L 962 731 L 962 712.5 z" stroke-linecap="round"/></g><g transform="matrix(1 0 0 1 105.74 -84.41)"><path style="stroke: none; stroke-width: 1; stroke-dasharray: none; stroke-linecap: butt; stroke-dashoffset: 0; stroke-linejoin: miter; stroke-miterlimit: 4; fill: rgb(88,195,183); fill-rule: nonzero; opacity: 1;"  transform=" translate(-982.76, -535.8)" d="M 995.4 556 C 988.1 552.6 976.3 550 968 550 L 962 550 L 962 531.3 L 962 512.6999999999999 L 972.7 513.3 C 981.4000000000001 513.8 1002.9000000000001 518 1003.4000000000001 519.1999999999999 C 1003.9000000000001 520.4999999999999 1002.7 558.9999999999999 1002.2 558.9 C 1001.8000000000001 558.9 998.8000000000001 557.6 995.4000000000001 556 z" stroke-linecap="round"/></g><g transform="matrix(1 0 0 1 143.23 60.56)"><path style="stroke: none; stroke-width: 1; stroke-dasharray: none; stroke-linecap: butt; stroke-dashoffset: 0; stroke-linejoin: miter; stroke-miterlimit: 4; fill: rgb(77,195,202); fill-rule: nonzero; opacity: 1;"  transform=" translate(-1020.25, -680.77)" d="M 1001.2 722.8 C 1000.4000000000001 722 1000 716.3 1000 703.5999999999999 L 1000 685.4999999999999 L 1008.8 678.9999999999999 C 1021.4 669.5999999999999 1032.7 654.3999999999999 1036 642.3999999999999 C 1036.7 639.9999999999999 1037.9 637.9999999999999 1038.6 637.9999999999999 C 1039.6999999999998 637.9999999999999 1040 644.0999999999999 1040.1999999999998 669.2999999999998 L 1040.4999999999998 700.4999999999999 L 1037.4999999999998 703.2999999999998 C 1030.7999999999997 709.3999999999999 1011.3999999999997 721.1999999999998 1004.4999999999998 723.3999999999999 C 1003.2999999999997 723.6999999999998 1001.8999999999997 723.4999999999999 1001.1999999999998 722.7999999999998 z" stroke-linecap="round"/></g><g transform="matrix(1 0 0 1 143.23 -58.71)"><path style="stroke: none; stroke-width: 1; stroke-dasharray: none; stroke-linecap: butt; stroke-dashoffset: 0; stroke-linejoin: miter; stroke-miterlimit: 4; fill: rgb(77,195,202); fill-rule: nonzero; opacity: 1;"  transform=" translate(-1020.25, -561.5)" d="M 1035.2 597.7 C 1030.4 584.1 1018.1 568.9000000000001 1006.1 561.5 L 1000 557.7 L 1000 538.4000000000001 C 1000 522.5000000000001 1000.2 519.0000000000001 1001.4 519.0000000000001 C 1006.3 519.0000000000001 1027.7 530.6000000000001 1035.7 537.6000000000001 L 1040.5 541.7000000000002 L 1040.2 572.9000000000002 C 1039.9 606.8000000000002 1039.4 609.4000000000002 1035.2 597.7000000000002 z" stroke-linecap="round"/></g><g transform="matrix(1 0 0 1 179.67 0.71)"><path style="stroke: none; stroke-width: 1; stroke-dasharray: none; stroke-linecap: butt; stroke-dashoffset: 0; stroke-linejoin: miter; stroke-miterlimit: 4; fill: rgb(61,195,223); fill-rule: nonzero; opacity: 1;"  transform=" translate(-1056.7, -620.92)" d="M 1037.7 701.3 C 1037.3 701 1037 687.4 1037 671.0999999999999 C 1037 648.1999999999999 1037.4 639.1999999999999 1038.7 631.3 C 1040.2 621.6999999999999 1040.2 620.3 1038.7 610.8 C 1036.6000000000001 598.3 1036.2 540 1038.1000000000001 540 C 1039.7 540 1050.5000000000002 551.5 1055.5000000000002 558.5 C 1071.4000000000003 580.9 1078.6000000000001 606.3 1076.0000000000002 630.3 C 1073.3000000000002 654.1999999999999 1063.0000000000002 676.5 1046.0000000000002 695.3 C 1039.9000000000003 701.9 1039.0000000000002 702.5999999999999 1037.7000000000003 701.3 z" stroke-linecap="round"/></g></g></g></svg>